<svg version="1.1" id="Layer_1" xmlns="http://www.w3.org/2000/svg" xmlns:xlink="http://www.w3.org/1999/xlink" x="0px" y="0px"
	 width="100%" viewBox="0 0 636 636" enable-background="new 0 0 636 636" xml:space="preserve">
<path fill="#000000" opacity="1.000000" stroke="none" 
	d="
M408.000000,637.000000 
	C272.000031,637.000000 136.500046,637.000000 1.000055,637.000000 
	C1.000036,425.000061 1.000036,213.000122 1.000018,1.000140 
	C212.999893,1.000093 424.999786,1.000093 636.999756,1.000047 
	C636.999878,212.999863 636.999878,424.999725 636.999939,636.999756 
	C560.833313,637.000000 484.666656,637.000000 408.000000,637.000000 
M233.500290,159.512421 
	C212.581497,159.512421 191.662704,159.512421 170.743912,159.512421 
	C170.243240,160.216263 169.742569,160.920105 169.241898,161.623947 
	C170.860611,162.512344 172.789703,163.087494 174.050705,164.336914 
	C188.966736,179.116043 203.881531,193.899673 218.547562,208.925262 
	C221.726730,212.182373 224.877075,213.425201 229.408615,213.415359 
	C295.902405,213.271164 362.396576,213.295181 428.890686,213.327591 
	C452.220215,213.338974 469.304596,228.125153 470.910156,249.535767 
	C472.633362,272.515137 454.719635,291.227539 430.598145,291.295227 
	C389.602112,291.410217 348.605530,291.327728 307.609161,291.328247 
	C305.874756,291.328278 304.140350,291.328278 301.483093,291.328278 
	C303.068787,293.135132 303.867218,294.155060 304.775970,295.064789 
	C364.487854,354.843018 424.194397,414.626556 484.008820,474.302032 
	C485.544708,475.834320 488.265167,476.932129 490.444153,476.950775 
	C512.773865,477.142151 535.105835,477.073517 557.437195,477.053528 
	C558.665466,477.052429 559.893555,476.839355 561.121765,476.724945 
	C561.491211,476.204407 561.860657,475.683868 562.230042,475.163300 
	C518.796875,432.143494 475.363647,389.123688 431.093689,345.275116 
	C433.861755,345.142944 435.301117,345.074951 436.740387,345.005371 
	C474.179474,343.195953 506.853394,318.826111 519.419312,283.339478 
	C532.040771,247.696030 521.854004,208.044144 493.627075,183.073532 
	C475.030579,166.622391 453.147736,159.424301 428.482971,159.471161 
	C363.822296,159.593979 299.161224,159.512512 233.500290,159.512421 
M137.716782,183.783554 
	C129.938873,176.002304 122.160950,168.221039 113.801132,159.857635 
	C113.801132,266.320374 113.801132,371.531250 113.801132,476.734802 
	C201.043304,476.734802 287.925751,476.734802 375.077484,476.734802 
	C375.077484,458.754974 375.138916,441.109741 374.969910,423.466736 
	C374.955170,421.925598 373.729980,420.097839 372.554352,418.911072 
	C356.722839,402.930206 340.803925,387.035889 324.890533,371.136292 
	C324.007599,370.254120 322.983582,369.513214 321.167664,367.984741 
	C321.167664,386.974609 321.167664,404.983673 321.167664,422.959961 
	C269.603333,422.959961 218.673141,422.959961 167.226273,422.959961 
	C167.226273,420.777008 167.226257,418.823303 167.226257,416.869629 
	C167.226257,350.549774 167.262802,284.229797 167.090454,217.910385 
	C167.083679,215.303619 165.709473,212.109070 163.903412,210.199432 
	C155.548172,201.365082 146.814667,192.888443 137.716782,183.783554 
z"/>
<path fill="#FDFDFD" opacity="1.000000" stroke="none" 
	d="
M234.000305,159.512451 
	C299.161224,159.512512 363.822296,159.593979 428.482971,159.471161 
	C453.147736,159.424301 475.030579,166.622391 493.627075,183.073532 
	C521.854004,208.044144 532.040771,247.696030 519.419312,283.339478 
	C506.853394,318.826111 474.179474,343.195953 436.740387,345.005371 
	C435.301117,345.074951 433.861755,345.142944 431.093689,345.275116 
	C475.363647,389.123688 518.796875,432.143494 562.230042,475.163300 
	C561.860657,475.683868 561.491211,476.204407 561.121765,476.724945 
	C559.893555,476.839355 558.665466,477.052429 557.437195,477.053528 
	C535.105835,477.073517 512.773865,477.142151 490.444153,476.950775 
	C488.265167,476.932129 485.544708,475.834320 484.008820,474.302032 
	C424.194397,414.626556 364.487854,354.843018 304.775970,295.064789 
	C303.867218,294.155060 303.068787,293.135132 301.483093,291.328278 
	C304.140350,291.328278 305.874756,291.328278 307.609161,291.328247 
	C348.605530,291.327728 389.602112,291.410217 430.598145,291.295227 
	C454.719635,291.227539 472.633362,272.515137 470.910156,249.535767 
	C469.304596,228.125153 452.220215,213.338974 428.890686,213.327591 
	C362.396576,213.295181 295.902405,213.271164 229.408615,213.415359 
	C224.877075,213.425201 221.726730,212.182373 218.547562,208.925262 
	C203.881531,193.899673 188.966736,179.116043 174.050705,164.336914 
	C172.789703,163.087494 170.860611,162.512344 169.241898,161.623947 
	C169.742569,160.920105 170.243240,160.216263 170.743912,159.512421 
	C191.662704,159.512421 212.581497,159.512421 234.000305,159.512451 
z"/>
<path fill="#FCFCFC" opacity="1.000000" stroke="none" 
	d="
M137.966736,184.033600 
	C146.814667,192.888443 155.548172,201.365082 163.903412,210.199432 
	C165.709473,212.109070 167.083679,215.303619 167.090454,217.910385 
	C167.262802,284.229797 167.226257,350.549774 167.226257,416.869629 
	C167.226257,418.823303 167.226273,420.777008 167.226273,422.959961 
	C218.673141,422.959961 269.603333,422.959961 321.167664,422.959961 
	C321.167664,404.983673 321.167664,386.974609 321.167664,367.984741 
	C322.983582,369.513214 324.007599,370.254120 324.890533,371.136292 
	C340.803925,387.035889 356.722839,402.930206 372.554352,418.911072 
	C373.729980,420.097839 374.955170,421.925598 374.969910,423.466736 
	C375.138916,441.109741 375.077484,458.754974 375.077484,476.734802 
	C287.925751,476.734802 201.043304,476.734802 113.801132,476.734802 
	C113.801132,371.531250 113.801132,266.320374 113.801132,159.857635 
	C122.160950,168.221039 129.938873,176.002304 137.966736,184.033600 
z"/>
</svg>